<?xml version="1.0" encoding="iso-8859-1"?>
<!-- Generator: Adobe Illustrator 19.0.0, SVG Export Plug-In . SVG Version: 6.00 Build 0)  -->
<svg version="1.1" id="Layer_1" xmlns="http://www.w3.org/2000/svg" xmlns:xlink="http://www.w3.org/1999/xlink" x="0px" y="0px"
	 viewBox="0 0 512 512" style="enable-background:new 0 0 512 512;" xml:space="preserve">
<circle style="fill:#E6F3FF;" cx="256" cy="256" r="256"/>
<path style="fill:#CFDBE6;" d="M509.211,293.84L407.604,192.233l-25.255,59.801l-99.981-99.981l-82.76,108.349l-95.997,90.172
	l161.258,161.258C389.392,507.589,491.344,414.427,509.211,293.84z"/>
<path style="fill:#A03D50;" d="M337.594,265.388c-41.753,0-78.419,21.688-99.416,54.396c20.999,32.706,57.663,54.396,99.416,54.396
	s78.419-21.688,99.416-54.396C416.011,287.079,379.347,265.388,337.594,265.388z"/>
<path style="fill:#C75163;" d="M174.406,265.388c41.753,0,78.419,21.688,99.416,54.396c-20.999,32.706-57.663,54.396-99.416,54.396
	s-78.419-21.688-99.416-54.396C95.989,287.079,132.653,265.388,174.406,265.388z"/>
<path style="fill:#FF6472;" d="M290.404,226.513c-31.815,31.808-43.225,76.266-34.304,117.186
	c40.922,8.928,85.385-2.474,117.2-34.28s43.225-76.266,34.304-117.186C366.682,183.303,322.219,194.705,290.404,226.513z"/>
<path style="fill:#FF80AA;" d="M221.596,226.513c31.815,31.808,43.225,76.266,34.304,117.186
	c-40.922,8.928-85.385-2.474-117.2-34.28s-43.225-76.266-34.304-117.186C145.318,183.303,189.781,194.705,221.596,226.513z"/>
<path style="fill:#FF6472;" d="M197.387,236.654c0,44.991,23.371,84.497,58.613,107.124c35.242-22.626,58.613-62.133,58.613-107.124
	S291.242,152.157,256,129.531C220.758,152.157,197.387,191.664,197.387,236.654z"/>
<path style="fill:#C75163;" d="M314.613,236.654c0-44.99-23.371-84.497-58.613-107.124v214.245
	C291.242,321.152,314.613,281.645,314.613,236.654z"/>
<g>
</g>
<g>
</g>
<g>
</g>
<g>
</g>
<g>
</g>
<g>
</g>
<g>
</g>
<g>
</g>
<g>
</g>
<g>
</g>
<g>
</g>
<g>
</g>
<g>
</g>
<g>
</g>
<g>
</g>
</svg>
