<?xml version="1.0" encoding="iso-8859-1"?>
<!-- Generator: Adobe Illustrator 19.0.0, SVG Export Plug-In . SVG Version: 6.00 Build 0)  -->
<svg version="1.1" id="Layer_1" xmlns="http://www.w3.org/2000/svg" xmlns:xlink="http://www.w3.org/1999/xlink" x="0px" y="0px"
	 viewBox="0 0 297 297" style="enable-background:new 0 0 297 297;" xml:space="preserve">
<g>
	<g>
		<g>
			<g>
				<circle style="fill:#FFA800;" cx="148.5" cy="148.5" r="148.5"/>
			</g>
		</g>
	</g>
	<path style="fill:#D38700;" d="M295.178,125.214l-61.549-61.549L63.083,233.026l62.156,62.156
		c7.579,1.192,15.347,1.818,23.261,1.818c82.014,0,148.5-66.486,148.5-148.5C297,140.577,296.373,132.801,295.178,125.214z"/>
	<path style="fill:#79302A;" d="M77.334,239.25h142.333c10.816,0,19.583-8.768,19.583-19.583V77.334
		c0-10.816-8.768-19.584-19.583-19.584H77.334c-10.816,0-19.584,8.768-19.584,19.584v142.333
		C57.75,230.482,66.518,239.25,77.334,239.25z"/>
	<path style="fill:#662623;" d="M219.667,57.75h-71.5v181.5h71.5c10.816,0,19.583-8.768,19.583-19.583V77.333
		C239.25,66.518,230.482,57.75,219.667,57.75z"/>
	<path style="fill:#FFFFFF;" d="M177.399,115.601c-18.929-5.094-38.87-5.094-57.799,0c-2.136,0.575-4.341-0.662-4.992-2.776
		c-3.68-11.962-7.36-23.924-11.04-35.885c-0.685-2.227,0.61-4.571,2.854-5.195c27.527-7.658,56.626-7.658,84.153,0
		c2.244,0.624,3.539,2.969,2.854,5.195c-3.68,11.962-7.36,23.924-11.04,35.885C181.741,114.939,179.536,116.176,177.399,115.601z"/>
	<path style="fill:#D0D5D9;" d="M190.577,71.744c-13.872-3.859-28.142-5.768-42.41-5.738v45.78
		c9.828-0.029,19.66,1.239,29.232,3.815c2.136,0.575,4.341-0.662,4.992-2.776c3.68-11.962,7.36-23.924,11.04-35.885
		C194.116,74.712,192.821,72.368,190.577,71.744z"/>
	<path style="fill:#79302A;" d="M152.497,106.5c-0.521,0-1.051-0.136-1.531-0.422c-1.424-0.848-1.892-2.688-1.044-4.112l12.5-21
		c0.848-1.426,2.69-1.892,4.112-1.044c1.424,0.848,1.892,2.688,1.044,4.112l-12.5,21C154.517,105.978,153.52,106.5,152.497,106.5z"
		/>
</g>
<g>
</g>
<g>
</g>
<g>
</g>
<g>
</g>
<g>
</g>
<g>
</g>
<g>
</g>
<g>
</g>
<g>
</g>
<g>
</g>
<g>
</g>
<g>
</g>
<g>
</g>
<g>
</g>
<g>
</g>
</svg>
