<?xml version="1.0" encoding="iso-8859-1"?>
<!-- Generator: Adobe Illustrator 19.0.0, SVG Export Plug-In . SVG Version: 6.00 Build 0)  -->
<svg version="1.1" id="Capa_1" xmlns="http://www.w3.org/2000/svg" xmlns:xlink="http://www.w3.org/1999/xlink" x="0px" y="0px"
	 viewBox="0 0 491.52 491.52" style="enable-background:new 0 0 491.52 491.52;" xml:space="preserve">
<circle style="fill:#45B39C;" cx="245.76" cy="245.76" r="245.76"/>
<path style="opacity:0.1;enable-background:new    ;" d="M488.112,286.413L367.667,165.99c-2.355-3.174-6.093-5.171-10.342-5.171
	h-47.104l-50.227-50.227l-0.103,0.051c-3.687-3.533-8.653-5.683-14.131-5.683c-11.315,0-20.48,9.165-20.48,20.48v35.379h-91.085
	c-7.219,0-13.005,5.837-13.005,13.005c0,2.713,0.819,5.171,2.202,7.219c0.922,1.434,2.151,2.611,3.533,3.533l12.595,12.595
	l-34.406,87.04c-0.051,0.256-0.103,0.512-0.103,0.717h-0.051v0.256c0,0.051,0,0.102,0,0.102c0.051,10.035,3.533,19.251,9.216,26.675
	l0.103,0.103c2.406,3.123,5.223,5.99,8.397,8.397l44.237,44.237v21.863l103.711,103.711
	C381.177,479.163,470.066,394.772,488.112,286.413z"/>
<polygon style="fill:#64798A;" points="266.218,338.682 225.302,338.682 166.919,364.523 166.919,386.56 324.601,386.56 
	324.601,364.523 "/>
<g>
	<rect x="166.917" y="364.544" style="fill:#3A556A;" width="157.681" height="22.036"/>
	<path style="fill:#3A556A;" d="M245.76,104.96c-11.298,0-20.457,9.159-20.457,20.457v213.264h40.915V125.417
		C266.218,114.119,257.059,104.96,245.76,104.96z"/>
	<path style="fill:#3A556A;" d="M191.439,287.721c-1.038,0-2.015-0.62-2.415-1.63l-39.528-100.095l-39.528,100.095
		c-0.527,1.315-2.02,1.975-3.356,1.455c-1.331-0.515-1.995-2-1.473-3.315l44.358-112.325l44.358,112.325
		c0.521,1.315-0.142,2.8-1.473,3.315C192.071,287.666,191.752,287.721,191.439,287.721z"/>
	<path style="fill:#3A556A;" d="M149.496,292.341c-1.433,0-2.592-1.145-2.592-2.56v-110.83c0-1.415,1.159-2.56,2.592-2.56
		s2.592,1.145,2.592,2.56v110.83C152.088,291.196,150.928,292.341,149.496,292.341z"/>
	<path style="fill:#3A556A;" d="M383.967,287.721c-1.038,0-2.015-0.62-2.415-1.63l-39.528-100.095l-39.528,100.095
		c-0.527,1.315-2.02,1.975-3.356,1.455c-1.331-0.515-1.995-2-1.473-3.315l44.358-112.325l44.358,112.325
		c0.521,1.315-0.142,2.8-1.473,3.315C384.6,287.666,384.281,287.721,383.967,287.721z"/>
	<path style="fill:#3A556A;" d="M342.024,292.341c-1.433,0-2.592-1.145-2.592-2.56v-110.83c0-1.415,1.159-2.56,2.592-2.56
		c1.433,0,2.592,1.145,2.592,2.56v110.83C344.616,291.196,343.457,292.341,342.024,292.341z"/>
</g>
<path style="fill:#F6C358;" d="M104.96,284.934c0,24.596,19.939,44.535,44.536,44.535s44.536-19.939,44.536-44.535H104.96z"/>
<path style="fill:#FCD462;" d="M104.96,284.934c0,21.848,17.712,39.56,39.56,39.56c21.848,0,39.56-17.711,39.56-39.56H104.96z"/>
<path style="fill:#F6C358;" d="M297.489,284.934c0,24.596,19.939,44.535,44.536,44.535c24.596,0,44.536-19.939,44.536-44.535
	H297.489z"/>
<path style="fill:#FCD462;" d="M297.489,284.934c0,21.848,17.712,39.56,39.56,39.56c21.848,0,39.56-17.711,39.56-39.56H297.489z"/>
<path style="fill:#2F4859;" d="M357.333,160.813H134.187c-7.188,0-13.014,5.826-13.014,13.013c0,7.187,5.826,13.013,13.014,13.013
	h223.146c7.188,0,13.014-5.826,13.014-13.013C370.347,166.639,364.521,160.813,357.333,160.813z"/>
<circle style="fill:#3A556A;" cx="245.76" cy="173.507" r="7.542"/>
<g>
</g>
<g>
</g>
<g>
</g>
<g>
</g>
<g>
</g>
<g>
</g>
<g>
</g>
<g>
</g>
<g>
</g>
<g>
</g>
<g>
</g>
<g>
</g>
<g>
</g>
<g>
</g>
<g>
</g>
</svg>
