<?xml version="1.0" encoding="iso-8859-1"?>
<!-- Generator: Adobe Illustrator 19.0.0, SVG Export Plug-In . SVG Version: 6.00 Build 0)  -->
<svg version="1.1" id="Capa_1" xmlns="http://www.w3.org/2000/svg" xmlns:xlink="http://www.w3.org/1999/xlink" x="0px" y="0px"
	 viewBox="0 0 512 512" style="enable-background:new 0 0 512 512;" xml:space="preserve">
<circle style="fill:#005C83;" cx="256" cy="256" r="256"/>
<path style="fill:#00263F;" d="M101.088,302.243l204.869,204.869c99.88-19.76,178.856-97.611,200.269-196.887L452,256
	L101.088,302.243z"/>
<path style="fill:#FFFFFF;" d="M452,256c0,0-87.752,122.309-196,122.309S60,256,60,256s87.752-122.309,196-122.309S452,256,452,256z
	"/>
<path style="fill:#E0E0E0;" d="M256,133.691C364.248,133.691,452,256,452,256s-87.752,122.309-196,122.309V133.691z"/>
<circle style="fill:#F1333F;" cx="256" cy="256" r="101.15"/>
<path style="fill:#AE283F;" d="M256,154.852c55.862,0,101.148,45.285,101.148,101.148S311.862,357.148,256,357.148V154.852z"/>
<circle style="fill:#333333;" cx="256" cy="256" r="40.17"/>
<path style="fill:#1A1A1A;" d="M256,215.833c22.183,0,40.167,17.983,40.167,40.167S278.183,296.167,256,296.167V215.833z"/>
<g>
</g>
<g>
</g>
<g>
</g>
<g>
</g>
<g>
</g>
<g>
</g>
<g>
</g>
<g>
</g>
<g>
</g>
<g>
</g>
<g>
</g>
<g>
</g>
<g>
</g>
<g>
</g>
<g>
</g>
</svg>
