<?xml version="1.0" encoding="iso-8859-1"?>
<!-- Generator: Adobe Illustrator 19.0.0, SVG Export Plug-In . SVG Version: 6.00 Build 0)  -->
<svg version="1.1" id="Capa_1" xmlns="http://www.w3.org/2000/svg" xmlns:xlink="http://www.w3.org/1999/xlink" x="0px" y="0px"
	 viewBox="0 0 512 512" style="enable-background:new 0 0 512 512;" xml:space="preserve">
<circle style="fill:#FF6838;" cx="256" cy="256" r="256"/>
<path style="fill:#AE4E32;" d="M262.264,511.921C400.755,508.594,512,395.291,512,256c0-22.139-2.812-43.621-8.095-64.11
	l-73.412-73.412L283.333,99L94.5,110.5l-9.946,62.948l16.749,16.749l-13.156,51.126l33.714,33.714L90,285.88l58.867,58.867
	l-20.009,17.495l67.819,67.819l-8.496,7.775L262.264,511.921z"/>
<path style="fill:#FFECB3;" d="M256.168,60.223c-78.111,0.27-140.832,64.754-140.832,142.865v9.157L90,285.88l25.337,3.744v42.113
	c0,22.739,18.433,41.172,41.172,41.172h31.671v64.926h130.643V328.511c46.891-23,79.177-71.205,79.177-126.957
	C398,123.332,334.454,59.952,256.168,60.223z"/>
<path style="fill:#FFD863;" d="M256.168,60.223c-0.168,0.001-0.334,0.007-0.252,0.008v377.605h62.906V328.511
	c46.891-23,79.177-71.205,79.177-126.957C398,123.332,334.454,59.952,256.168,60.223z"/>
<path style="fill:#175D76;" d="M407.503,175.506c21.068-18.271,29.7-35.993,25.037-51.865c-5.724-19.486-29.797-30.49-69.617-31.822
	c-5.505-0.186-11.249-0.16-17.157,0.029c7.394,6.012,14.168,12.755,20.212,20.122c31.562,1.626,45.196,9.9,47.372,17.309
	c1.878,6.391-3.074,17.935-20.939,32.819c-3.646,3.037-7.816,6.21-12.59,9.511c-27.618,19.092-66.837,36.66-110.434,49.467
	c-4.479,1.316-8.941,2.547-13.387,3.727c-4.447-1.18-8.909-2.411-13.388-3.727c-43.597-12.807-82.816-30.375-110.434-49.467
	c-4.181-2.891-7.899-5.684-11.21-8.374c0.048-0.165,0.09-0.332,0.138-0.497c-0.099,0.068-0.202,0.136-0.301,0.205
	c-0.035,0.024-0.068,0.048-0.103,0.073c-18.772-15.327-23.969-27.215-22.053-33.737c2.221-7.563,16.385-16.023,49.362-17.399
	c6.004-7.302,12.714-13.994,20.026-19.969c-6.55-0.249-12.896-0.293-18.961-0.091c-39.819,1.332-63.893,12.336-69.617,31.822
	c-4.661,15.867,3.973,33.585,25.032,51.851c-21.07,18.272-29.694,35.996-25.032,51.868c2.92,9.94,10.626,17.667,22.75,23.036
	c11.643,5.155,27.36,8.134,46.867,8.787c2.701,0.09,5.453,0.135,8.255,0.135c28.998,0,63.217-4.828,98.668-13.853
	c35.453,9.026,69.67,13.854,98.669,13.853c2.8,0,5.556-0.045,8.255-0.135c8.689-0.291,16.628-1.042,23.79-2.242
	c25.661-4.297,41.352-14.347,45.827-29.581C437.202,211.492,428.564,193.773,407.503,175.506z M149.745,239.194
	c-19.71-0.659-32.904-3.803-40.991-7.819c-5.956-2.958-9.147-6.388-10.105-9.651c-1.735-5.906,2.364-16.214,17.094-29.491
	c0.183-2.434,0.43-4.851,0.734-7.25c1.409,1.025,2.843,2.05,4.328,3.077c24.767,17.122,58.045,33.007,95.255,45.6
	C191.957,237.914,169.328,239.849,149.745,239.194z M413.351,221.723c-1.369,4.66-7.279,9.661-19.321,13.137
	c-7.842,2.264-18.277,3.882-31.776,4.334c-19.577,0.654-42.207-1.282-66.313-5.536c37.209-12.592,70.487-28.477,95.253-45.599
	c1.969-1.361,3.868-2.721,5.703-4.079c0.396,3.184,0.697,6.397,0.877,9.644C411.27,206.229,415.025,216.025,413.351,221.723z"/>
<path style="fill:#00263F;" d="M256,245.465c35.453,9.026,69.67,13.854,98.669,13.853c2.8,0,5.556-0.045,8.255-0.135
	c8.689-0.291,16.628-1.042,23.79-2.242c25.661-4.297,41.352-14.347,45.827-29.581c4.661-15.868-3.976-33.587-25.037-51.854
	c21.068-18.271,29.7-35.993,25.037-51.865c-5.724-19.486-29.797-30.49-69.617-31.822c-5.505-0.186-11.249-0.16-17.157,0.029
	c7.394,6.012,14.168,12.755,20.212,20.122c31.562,1.626,45.196,9.9,47.372,17.309c1.878,6.391-3.074,17.935-20.939,32.819
	c-3.646,3.037-7.816,6.21-12.59,9.511c-27.618,19.092-66.837,36.66-110.434,49.467c-4.479,1.316-8.941,2.547-13.387,3.727
	L256,245.465z M413.351,221.723c-1.369,4.66-7.279,9.661-19.321,13.137c-7.842,2.264-18.277,3.882-31.776,4.334
	c-19.577,0.654-42.207-1.282-66.313-5.536c37.209-12.592,70.487-28.477,95.253-45.599c1.969-1.361,3.868-2.721,5.703-4.079
	c0.396,3.184,0.697,6.397,0.877,9.644C411.27,206.229,415.025,216.025,413.351,221.723z"/>
<circle style="fill:#4B7689;" cx="100" cy="158.5" r="21.5"/>
<circle style="fill:#175D76;" cx="388.5" cy="245.5" r="21.5"/>
<g>
</g>
<g>
</g>
<g>
</g>
<g>
</g>
<g>
</g>
<g>
</g>
<g>
</g>
<g>
</g>
<g>
</g>
<g>
</g>
<g>
</g>
<g>
</g>
<g>
</g>
<g>
</g>
<g>
</g>
</svg>
