<?xml version="1.0" encoding="iso-8859-1"?>
<!-- Generator: Adobe Illustrator 19.0.0, SVG Export Plug-In . SVG Version: 6.00 Build 0)  -->
<svg version="1.1" id="Capa_1" xmlns="http://www.w3.org/2000/svg" xmlns:xlink="http://www.w3.org/1999/xlink" x="0px" y="0px"
	 viewBox="0 0 512 512" style="enable-background:new 0 0 512 512;" xml:space="preserve">
<circle style="fill:#FFDC00;" cx="256" cy="256" r="256"/>
<path style="fill:#FFC000;" d="M100.542,326.195l184.95,184.104c116.402-13.355,209.057-104.766,224.296-220.585L373.905,153.832
	L100.542,326.195z"/>
<path style="fill:#00BAFF;" d="M222.74,326.195c0,20.826,16.883,37.709,37.709,37.709c18.302,0,33.553-13.04,36.983-30.334
	c23.917-3.431,42.302-23.994,42.302-48.86c0-3.499-0.37-6.911-1.062-10.204c15.056-8.457,25.234-24.568,25.234-43.065
	c0-15.625-7.266-29.545-18.595-38.592c1.442-4.637,2.219-9.567,2.219-14.678c0-27.267-22.104-49.372-49.372-49.372
	c-0.278,0-0.551,0.016-0.827,0.021c-3.618-17.05-18.753-29.843-36.881-29.843c-20.826,0-37.709,16.883-37.709,37.709L222.74,326.195
	L222.74,326.195z"/>
<path style="fill:#0074A3;" d="M305.076,271.897c-22.308,0-40.457-18.149-40.457-40.457s18.149-40.457,40.457-40.457v20
	c-11.28,0-20.457,9.177-20.457,20.457s9.177,20.457,20.457,20.457V271.897z"/>
<path style="fill:#35CCFF;" d="M218.388,136.685c0-20.826-16.883-37.709-37.708-37.709c-18.302,0-33.553,13.04-36.983,30.334
	c-23.917,3.431-42.302,23.994-42.302,48.86c0,3.499,0.37,6.911,1.062,10.204c-15.056,8.457-25.234,24.568-25.234,43.065
	c0,15.625,7.266,29.545,18.595,38.592c-1.442,4.637-2.219,9.567-2.219,14.678c0,27.267,22.104,49.372,49.372,49.372
	c0.278,0,0.551-0.016,0.827-0.021c3.618,17.05,18.753,29.843,36.881,29.843c20.826,0,37.708-16.883,37.708-37.709L218.388,136.685z"
	/>
<path style="fill:#0074A3;" d="M373.905,231.44c0-15.938-6.287-30.927-17.442-42.025c0.708-3.691,1.065-7.452,1.065-11.245
	c0-30.484-23.093-55.676-52.704-59c-7.089-17.882-24.659-30.195-44.377-30.195c-16.663,0-31.35,8.593-39.884,21.575
	c-8.535-12.981-23.221-21.575-39.884-21.575c-20.379,0-38.323,13.011-44.972,31.765c-25.678,6.747-44.313,30.352-44.313,57.429
	c0,1.765,0.079,3.532,0.236,5.294c-15.208,11.099-24.408,28.908-24.408,47.975c0,15.939,6.285,30.927,17.442,42.025
	c-0.708,3.691-1.065,7.453-1.065,11.244c0,30.484,23.093,55.676,52.703,59c7.089,17.881,24.659,30.194,44.377,30.194
	c16.663,0,31.349-8.593,39.884-21.574c8.535,12.981,23.221,21.575,39.884,21.575c20.379,0,38.323-13.011,44.972-31.765
	c25.678-6.747,44.313-30.352,44.313-57.429c0-1.765-0.079-3.533-0.237-5.294C364.705,268.316,373.905,250.507,373.905,231.44z
	 M180.68,353.903c-13.007,0-24.404-9.218-27.099-21.919l-0.919-5.789l0,0c0-15.279,12.74-27.709,28.018-27.709v-20
	c-25.174,0-45.841,19.602-47.576,44.342c-16.949-4.391-29.504-19.816-29.504-38.119c0-3.997,0.595-7.937,1.768-11.709l2.027-6.521
	l-5.336-4.261c-9.428-7.529-14.835-18.747-14.835-30.777c0-14.211,7.714-27.372,20.131-34.346l6.397-3.594l-1.509-7.181
	c-0.563-2.678-0.848-5.419-0.848-8.148c0-15.238,8.895-28.814,21.989-35.31c3.04,23.398,23.083,41.533,47.295,41.533v-20
	c-15.278,0-27.98-12.43-27.98-27.709l0,0l0.806-5.429c2.56-12.91,13.988-22.28,27.174-22.28c15.278,0,27.708,12.43,27.708,27.708
	v189.51C208.388,341.473,195.958,353.903,180.68,353.903z M333.774,265.786l-6.398,3.594l1.51,7.182
	c0.563,2.677,0.848,5.418,0.848,8.147c0,19.454-14.498,36.204-33.722,38.961L289,325.182l-1.378,6.442
	c-2.56,12.91-13.988,22.28-27.174,22.28c-15.278,0-27.708-12.43-27.708-27.709v-189.51c0-15.279,12.43-27.709,27.708-27.709
	c13.007,0,24.403,9.219,27.099,21.92l1.711,8.061l8.239-0.138l0.659-0.02c21.71,0,39.372,17.662,39.372,39.372
	c0,3.997-0.595,7.937-1.768,11.709l-2.028,6.522l5.337,4.262c9.428,7.529,14.835,18.747,14.835,30.777
	C353.905,245.651,346.191,258.812,333.774,265.786z"/>
<path style="fill:#005C83;" d="M373.905,231.44c0-15.938-6.287-30.927-17.442-42.025c0.708-3.691,1.065-7.452,1.065-11.245
	c0-30.484-23.093-55.676-52.704-59c-7.089-17.882-24.659-30.195-44.377-30.195c-16.663,0-31.35,8.593-39.884,21.575
	c-0.074-0.112-0.073,241.89,0,241.778c8.535,12.981,23.221,21.575,39.884,21.575c20.379,0,38.323-13.011,44.972-31.765
	c25.678-6.747,44.313-30.352,44.313-57.429c0-1.765-0.079-3.533-0.237-5.294C364.705,268.316,373.905,250.507,373.905,231.44z
	 M333.774,265.786l-6.398,3.594l1.51,7.182c0.563,2.677,0.848,5.418,0.848,8.147c0,15.238-8.896,28.814-21.99,35.31
	c-3.04-23.398-23.083-41.533-47.295-41.533v20c15.278,0,28.552,11.417,28.552,26.696l-1.378,6.442
	c-2.56,12.91-13.988,22.28-27.174,22.28c-15.278,0-27.708-12.43-27.708-27.709v-189.51c0-15.279,12.43-27.709,27.708-27.709
	c13.007,0,24.403,9.219,27.099,21.92l1.711,8.061l8.239-0.138l0.659-0.02c21.71,0,39.372,17.662,39.372,39.372
	c0,3.997-0.595,7.937-1.768,11.709l-2.028,6.522l5.337,4.262c9.428,7.529,14.835,18.747,14.835,30.777
	C353.905,245.651,346.191,258.812,333.774,265.786z"/>
<path style="fill:#0074A3;" d="M136.052,271.897v-20c11.28,0,20.457-9.177,20.457-20.457s-9.177-20.457-20.457-20.457v-20
	c22.308,0,40.457,18.149,40.457,40.457S158.36,271.897,136.052,271.897z"/>
<circle style="fill:#B9EAFF;" cx="316.13" cy="222.89" r="77.72"/>
<path style="fill:#35CCFF;" d="M261.232,167.864c-14.103,14.071-22.83,33.527-22.83,55.023c0,42.926,34.799,77.725,77.725,77.725
	c21.496,0,40.953-8.727,55.023-22.83L261.232,167.864z"/>
<rect x="354.376" y="288.414" transform="matrix(-0.7071 -0.7071 0.7071 -0.7071 468.5438 817.254)" style="fill:#FF6838;" width="98.309" height="46.35"/>
<rect x="383.605" y="270.271" transform="matrix(-0.7071 0.7071 -0.7071 -0.7071 901.3616 265.4957)" style="fill:#AE4E32;" width="24.18" height="98.309"/>
<path style="fill:#FF9451;" d="M316.127,312.971c-49.673,0-90.084-40.411-90.084-90.084s40.411-90.084,90.084-90.084
	c49.672,0,90.083,40.411,90.083,90.084S365.799,312.971,316.127,312.971z M316.127,157.522c-36.043,0-65.366,29.323-65.366,65.366
	s29.323,65.366,65.366,65.366s65.366-29.323,65.366-65.366S352.169,157.522,316.127,157.522z"/>
<path style="fill:#F7674F;" d="M362.389,269.021c-11.841,11.874-28.208,19.233-46.262,19.233c-36.043,0-65.366-29.323-65.366-65.366
	c0-18.054,7.359-34.421,19.233-46.262l-17.471-17.471c-16.35,16.317-26.48,38.864-26.48,63.733
	c0,49.673,40.411,90.084,90.084,90.084c24.869,0,47.416-10.13,63.733-26.48L362.389,269.021z"/>
<g>
</g>
<g>
</g>
<g>
</g>
<g>
</g>
<g>
</g>
<g>
</g>
<g>
</g>
<g>
</g>
<g>
</g>
<g>
</g>
<g>
</g>
<g>
</g>
<g>
</g>
<g>
</g>
<g>
</g>
</svg>
