<?xml version="1.0" encoding="iso-8859-1"?>
<!-- Generator: Adobe Illustrator 19.0.0, SVG Export Plug-In . SVG Version: 6.00 Build 0)  -->
<svg version="1.1" id="Capa_1" xmlns="http://www.w3.org/2000/svg" xmlns:xlink="http://www.w3.org/1999/xlink" x="0px" y="0px"
	 viewBox="0 0 491.52 491.52" style="enable-background:new 0 0 491.52 491.52;" xml:space="preserve">
<circle style="fill:#45B39C;" cx="245.76" cy="245.76" r="245.76"/>
<path style="opacity:0.1;enable-background:new    ;" d="M295.782,138.124c-5.027-3.915-10.745-6.591-16.765-8.614l-17.176-17.176
	c-11.99-12.444-28.825-20.188-47.468-20.188c-36.454,0-65.997,29.542-65.997,65.997c0,19.186,8.233,36.403,21.3,48.461l-0.001,0.001
	l53.976,53.975c-6.574-0.85-13.288-0.246-19.416,2.268c-4.71,1.893-8.909,4.812-12.851,7.987c-1.69,1.382-4.198,2.815-5.837,1.382
	c-0.768-0.665-1.024-1.74-1.28-2.713c-3.021-12.544-35.226-23.194-47.514-27.187v123.647l124.984,124.983
	c102.147-6.562,187.274-75.492,217.728-169.138l-176.19-176.19C301.007,142.894,298.592,140.308,295.782,138.124z"/>
<path style="fill:#FCD462;" d="M354.692,311.056c-1.908-51.486-15.719-102.491-40.04-147.909
	c-4.973-9.288-10.574-18.571-18.886-25.045c-10.425-8.12-23.905-10.931-36.865-13.51c-10.49-2.088-22.33-3.918-31.084,2.227
	c-7.39,5.188-29.631,29.089-29.021,35.704c0.589,6.379,8.764,9.699,10.077,15.969c1.398,6.68-5.368,14.673-0.75,19.698
	c10.114,1.79,18.761-6.881,28.414-10.391c10.562-3.842,22.25-1.358,33.203,1.159c1.323,0.304,2.716,0.645,3.688,1.591
	c1.244,1.21,1.49,3.089,1.647,4.818c2.726,30.065-0.618,61.259-9.395,90.217c-0.603,1.99-3.246,2.339-4.41,0.615
	c-5.762-8.527-13.178-15.994-22.254-20.771c-10.626-5.593-23.681-7.156-34.791-2.6c-4.681,1.919-8.889,4.834-12.829,8.009
	c-1.71,1.378-4.215,2.83-5.871,1.389c-0.765-0.666-1.005-1.735-1.242-2.721c-3.018-12.543-35.24-23.199-47.513-27.17v123.62
	c10.145,10.985,44.381,20.28,58.153,25.913c22.481,9.194,47.683,7.917,71.93,6.492c79.352-4.983,83.089-51.358,85.346-61.952
	C353.976,328.07,355.007,319.576,354.692,311.056z"/>
<circle style="fill:#3A556A;" cx="214.369" cy="158.147" r="65.987"/>
<circle style="fill:#64798A;" cx="214.369" cy="158.147" r="29.133"/>
<g>
	<path style="fill:#DC8744;" d="M180.213,317.205c2.527-5.921,3.772-12.31,4.694-18.639c0.409-3.177,0.514-6.39,0.783-9.567
		l-0.088-9.573l-0.492,9.531c-0.46,3.14-0.756,6.301-1.348,9.395c-1.288,6.162-2.712,12.388-5.648,17.777
		c-5.236,9.612-40.278,24.713-41.343,22.285v5.153C139.749,345.681,175.195,328.965,180.213,317.205z"/>
	<path style="fill:#DC8744;" d="M274.075,349.75c-4.511-8.322-8.099-17.316-9.69-26.765c-1.201-4.66-1.287-9.478-1.794-14.256
		c-0.298-4.79,0.095-9.604,0.108-14.426c-0.222,4.802-0.826,9.62-0.737,14.445c0.297,4.814,0.178,9.693,1.183,14.452
		c1.199,9.642,4.44,18.972,8.706,27.726c4.289,8.781,10.103,16.83,16.965,23.847c5.776,5.918,12.174,11.077,19.359,15.426
		c2.003-0.763,3.914-1.564,5.733-2.402c-8.019-3.92-15.772-9.399-22.444-15.711C284.568,365.621,278.611,358.095,274.075,349.75z"/>
	<path style="fill:#DC8744;" d="M246.128,356.306c-4.795,4.418-10.064,7.906-15.743,10.797c-5.676,2.832-11.822,4.83-18.148,5.453
		c-6.321,0.752-12.799-0.379-18.546-2.862c-5.928-2.257-10.735-6.469-15.258-10.677c4.732,3.998,9.686,7.922,15.587,9.845
		c5.729,2.151,11.991,2.931,18.009,1.917c6.022-0.889,11.795-3.077,17.1-6.048c5.263-2.987,10.285-6.707,14.443-10.928
		L246.128,356.306z"/>
</g>
<circle style="fill:#2F4859;" cx="214.364" cy="158.147" r="17.654"/>
<g>
</g>
<g>
</g>
<g>
</g>
<g>
</g>
<g>
</g>
<g>
</g>
<g>
</g>
<g>
</g>
<g>
</g>
<g>
</g>
<g>
</g>
<g>
</g>
<g>
</g>
<g>
</g>
<g>
</g>
</svg>
