<?xml version="1.0" encoding="iso-8859-1"?>
<!-- Generator: Adobe Illustrator 19.0.0, SVG Export Plug-In . SVG Version: 6.00 Build 0)  -->
<svg version="1.1" id="Capa_1" xmlns="http://www.w3.org/2000/svg" xmlns:xlink="http://www.w3.org/1999/xlink" x="0px" y="0px"
	 viewBox="0 0 512 512" style="enable-background:new 0 0 512 512;" xml:space="preserve">
<circle style="fill:#005C83;" cx="256" cy="256" r="256"/>
<path style="fill:#00263F;" d="M262.265,511.921C400.754,508.594,512,395.29,512,256c0-15.17-1.328-30.029-3.859-44.474L384.615,88
	l-16.101,28.265L309.5,57.25L270,96.75l90.592,90.592L322.833,200L208.754,88l-76.421,75.667L90,285.88l68.52,68.52l-33.468,3.889
	l71.195,71.195l-8.067,8.352L262.265,511.921z"/>
<g>
	<rect x="129.75" y="127.5" style="fill:#FFDC00;" width="39.5" height="39.5"/>
	<rect x="169.25" y="88" style="fill:#FFDC00;" width="39.5" height="39.5"/>
</g>
<g>
	<rect x="345.12" y="88" style="fill:#FFC000;" width="39.5" height="39.5"/>
	<rect x="270" y="57.25" style="fill:#FFC000;" width="39.5" height="39.5"/>
	<rect x="305.62" y="127.5" style="fill:#FFC000;" width="39.5" height="39.5"/>
</g>
<rect x="209" y="127.5" style="fill:#FFDC00;" width="39.5" height="39.5"/>
<path style="fill:#FFECB3;" d="M123.606,155c-5.351,15.06-8.27,31.256-8.27,48.088v9.157L90,285.88l25.337,3.744v42.113
	c0,22.739,18.433,41.172,41.172,41.172h31.671v64.926h130.643V328.511c46.891-23,79.177-71.205,79.177-126.957
	c0-16.312-2.772-31.975-7.857-46.554L123.606,155L123.606,155z"/>
<path style="fill:#FFD863;" d="M390.143,155H255.667v282.836h63.156V328.511c46.891-23,79.177-71.205,79.177-126.957
	C398,185.242,395.228,169.579,390.143,155z"/>
<g>
</g>
<g>
</g>
<g>
</g>
<g>
</g>
<g>
</g>
<g>
</g>
<g>
</g>
<g>
</g>
<g>
</g>
<g>
</g>
<g>
</g>
<g>
</g>
<g>
</g>
<g>
</g>
<g>
</g>
</svg>
