<?xml version="1.0" encoding="iso-8859-1"?>
<!-- Generator: Adobe Illustrator 19.0.0, SVG Export Plug-In . SVG Version: 6.00 Build 0)  -->
<svg version="1.1" id="Capa_1" xmlns="http://www.w3.org/2000/svg" xmlns:xlink="http://www.w3.org/1999/xlink" x="0px" y="0px"
	 viewBox="0 0 512 512" style="enable-background:new 0 0 512 512;" xml:space="preserve">
<circle style="fill:#008CC3;" cx="256" cy="256" r="256"/>
<path style="fill:#0074A3;" d="M262.264,511.921c138.119-3.318,249.127-116.027,249.721-254.804L359.794,104.925L90,285.88
	l58.928,58.929l-21.662,15.907l70.619,70.619l-9.705,6.502L262.264,511.921z"/>
<path style="fill:#FFECB3;" d="M256.168,60.223c-78.111,0.27-140.832,64.754-140.832,142.865v9.157L90,285.88l25.337,3.744v42.113
	c0,22.739,18.433,41.172,41.172,41.172h31.671v64.926h130.643V328.511c46.891-23,79.177-71.205,79.177-126.957
	C398,123.332,334.454,59.952,256.168,60.223z"/>
<path style="fill:#FFD863;" d="M256.168,60.223c-0.168,0-0.334,0.007-0.502,0.008v377.605h63.156V328.511
	c46.891-23,79.177-71.205,79.177-126.957C398,123.332,334.454,59.952,256.168,60.223z"/>
<path style="fill:#333333;" d="M256,196.71c-30.514,0-55.25,24.736-55.25,55.25S225.486,307.5,256,307.5l0,0
	c61.027,0,110.5-49.473,110.5-110.5S317.027,86.5,256,86.5V196.71z"/>
<path style="fill:#1A1A1A;" d="M256,86.5v110.21c-0.112,0-0.222,0.007-0.333,0.008V307.49c0.112,0.001,0.221,0.009,0.333,0.009
	c61.027,0,110.5-49.473,110.5-110.5S317.027,86.5,256,86.5z"/>
<g>
	<path style="fill:#FFFFFF;" d="M256,307.5c-30.514,0-55.25-25.026-55.25-55.54s24.736-55.25,55.25-55.25s55.25-24.736,55.25-55.25
		S286.514,86.21,256,86.21c-61.027,0-110.5,49.762-110.5,110.79S194.973,307.5,256,307.5z"/>
	<path style="fill:#FFFFFF;" d="M256,307.5c-0.112,0-0.222-0.008-0.333-0.009v0.004C255.778,307.496,255.889,307.5,256,307.5z"/>
</g>
<path style="fill:#E0E0E0;" d="M256,86.21c-0.111,0-0.222,0.004-0.333,0.004v110.504c0.112-0.001,0.221-0.008,0.333-0.008
	c30.514,0,55.25-24.736,55.25-55.25S286.514,86.21,256,86.21z"/>
<circle style="fill:#333333;" cx="255.67" cy="141.67" r="13"/>
<circle style="fill:#FFFFFF;" cx="255.67" cy="252.47" r="13"/>
<path style="fill:#1A1A1A;" d="M255.667,154.667c7.18,0,13-5.82,13-13s-5.82-13-13-13L255.667,154.667L255.667,154.667z"/>
<path style="fill:#E0E0E0;" d="M255.667,265.465c7.18,0,13-5.82,13-13s-5.82-13-13-13L255.667,265.465L255.667,265.465z"/>
<g>
</g>
<g>
</g>
<g>
</g>
<g>
</g>
<g>
</g>
<g>
</g>
<g>
</g>
<g>
</g>
<g>
</g>
<g>
</g>
<g>
</g>
<g>
</g>
<g>
</g>
<g>
</g>
<g>
</g>
</svg>
